<?xml version="1.0" encoding="UTF-8"?>
<svg id="Layer_2" data-name="Layer 2" xmlns="http://www.w3.org/2000/svg" viewBox="0 0 240.94 311.81">
  <defs>
    <style>
      .cls-1 {
        fill: #231f20;
        stroke-width: 0px;
      }
    </style>
  </defs>
  <g id="Layer_1-2" data-name="Layer 1">
    <g>
      <path class="cls-1" d="M240.83,51.22c-.03-15.92-.18-31.84-.12-47.76,0-2.3-.86-2.83-3.36-2.81-17.3.11-34.59.16-51.89.13-16.72-.03-33.43-.17-50.15-.31-13.18-.11-26.37-.3-39.55-.46,0,.31-34.81.48-52.21.32C30.82.21,18.08.17,5.35.15,1.14.15-.06,1.29,0,4.88c.07,3.51.2,7.02.2,10.53.01,25.83-.04,54.05-.04,79.88,0,22.93.05,45.87-.02,68.8-.04,11.98.44,23.97,2.88,35.76,1.69,8.18,4.23,16.32,7.39,24.19,5.27,13.1,12.65,25.37,22.66,36.37,3.35,3.68,6.71,7.37,10.32,10.87,8.44,8.19,18.15,15.23,28.43,21.63,5.33,3.32,11.2,6.06,17.03,8.75,5,2.31,10.11,4.39,15.22,6.46,5.1,2.06,9.76,3.25,15.3,3.63,7.58.52,14.44-1.92,21.13-4.43,15.37-5.77,29.3-13.53,41.99-22.91,12.62-9.33,23.88-19.65,32.45-32,7.27-10.48,13.51-21.35,17.24-33.13,2.13-6.74,3.67-13.63,5.38-20.47,2.14-8.57,2.49-17.14,2.78-25.9.3-9.12.5-18.24.55-27.36,0-.64,0-1.28,0-1.92.1-30.01,0-62.4-.07-92.41ZM218.28,144.69c-.06,12.47-.27,24.94-.42,37.42-.11,9.2-1.81,18.62-4.41,27.46-2.43,8.28-6.31,16.6-10.86,23.99-8.81,14.28-20.23,26.94-34.82,37.37-11.32,8.09-23.82,14.51-37.3,19.69-6.06,2.33-11.83,3.27-18.01.71-2.09-.87-4.24-1.62-6.34-2.47-18.85-7.58-34.78-18.44-48.22-31.94-5.03-5.05-10.02-10.27-13.97-15.95-7.42-10.66-13.14-22.01-16.88-34.08-5.15-16.64-5.57-33.58-5.44-50.59.1-12.2.3-24.4.45-36.6-.3,0-.41-35.3-.25-52.94.07-7.03-.44-16.47.01-23.48.47-7.32.02-14.72.98-22.01.32-2.44,3.65-2.91,6.52-2.91,14.14,0,28.28-.36,42.42-.42,11.92-.05,23.85.13,35.78.18,5.9.03,11.8-.01,17.71,0,12.29.05,24.59.07,36.88.19,16.04.15,32.09.41,48.13.52,2.48.02,9.15-.41,9.54,1.73.97,5.35-1.34,89.25-1.49,124.14Z"/>
      <path class="cls-1" d="M197.69,183.3c-7.83-5.43-15.78-10.72-23.54-16.22-12.99-9.21-26.51-17.79-40.73-25.56-.91-.5-1.79-1.75-1.79-2.66-.11-16.56-.11-33.12-.09-49.68,0-4.59.13-12.18.2-16.76.02-1.22-1.09-2.22-2.47-2.24-5.78-.05-11.11-.04-16.42-.25-2.46-.1-2.98.54-2.97,2.54.1,20.94.06,44.87-.02,65.81,0,.93-.82,2.18-1.72,2.72-4.92,2.93-10.1,5.53-14.97,8.52-6.54,4.01-12.95,8.19-19.28,12.44-10.64,7.14-21.2,14.37-31.73,21.63-2.93,2.02-4.08,4.7-3.18,7.98,1.02,3.71,1.81,7.47,2.75,11.2.26,1.05.7,2.06,1.3,3.82,22.44-15.24,44.35-30.13,66.25-45.01.4.18.47.21.87.39-.05,3.65-.18,7.31-.12,10.96.07,4.44-2.1,7.73-6.3,10.28-4.01,2.44-7.88,5.05-11.74,7.66-8.92,6.01-17.82,12.04-26.7,18.1-4.77,3.25-9.61,6.42-14.19,9.86-.99.74-1.85,2.71-1.38,3.57,2.21,4.08,4.83,8,7.43,11.92,1.19,1.79,2.98,1.77,4.77.59,3.17-2.09,6.32-4.21,9.48-6.33,7.87-5.29,15.72-10.58,23.6-15.87,2.88-1.93,5.7-3.96,8.72-5.72,3.09-1.8,6.06-1.22,5.92,2.38-.09,2.48.38,4.99.26,7.47-.11,2.15-.89,4.16-3.06,5.62-8.22,5.52-16.41,11.08-24.59,16.65-3.99,2.72-7.93,5.47-11.87,8.24-.91.64-1.87,1.35-.57,2.44,3.77,3.18,7.4,6.48,11.31,9.52,2.64,2.05,3.71,1.83,6.54-.07,5.28-3.54,10.51-7.13,15.95-10.48,3.34-2.06,5.05-1.34,5.91,2.05.12.47.16.96.16,1.44.05,6.79.11,13.57.11,20.36,0,2.39,1.07,4.26,3.61,5.21,2.26.85,4.66,1.47,7.07,1.96,4.22.86,9.16-1.57,9.79-5.23.73-4.28.73-8.66.99-12.99.23-3.86.35-7.72.61-11.58.13-1.92,2.11-2.86,4.15-2,1.03.43,2.03.94,2.94,1.53,5.19,3.36,10.34,6.77,15.54,10.11,1.47.95,3.12,1.26,4.63.01,3.39-2.82,6.76-5.66,10.1-8.52,1.49-1.27,1.38-3.25-.25-4.39-3.79-2.65-7.43-5.46-11.24-8.09-6.26-4.33-12.63-8.53-18.88-12.87-2-1.39-3.97-2.9-5.56-4.62-2.92-3.16-2.03-6.97-1.9-10.6.18-5,2.11-5.16,6.25-3.33.5.22.98.5,1.43.8,8.62,5.83,17.2,11.7,25.85,17.5,3.28,2.2,6.74,4.2,10.02,6.39,2.3,1.53,4.45,3.23,6.81,4.97.78-.9,1.23-1.37,1.61-1.87,3.07-3.99,6.08-7.98,7.57-12.69.42-1.33.7-2.06-.78-3.07-17.59-11.92-35.14-23.88-52.61-35.92-2.04-1.41-4.37-3.15-5.14-5.13-2.02-5.15-1.12-10.53-.63-16.26,22.33,14.97,43.61,30.24,65.78,44.91.75-1.23.67-1.59,1.05-2.15,2.59-3.92,3.22-6.23,4.87-9.11,3.17-5.52-1.56-9.35-5.76-12.27Z"/>
      <path class="cls-1" d="M95.36,109.18c2.25-4.51,2.57-9.34,2.5-14.2-.1-6.98-1.48-13.44-9.21-17.82,5.23-2.62,8.13-6.42,8.8-11.22.68-4.79,1.1-9.76-.98-14.33-1.46-3.21-3.47-6.69-6.43-8.86-5.55-4.07-12.29-6.59-19.93-6.67-10.38-.11-20.77-.14-31.15-.38-2.47-.06-3.06.56-3.05,2.56.11,12.2.09,24.39.09,36.59,0,15.33,0,30.66-.04,46,0,1.2.05,2.1,1.94,2.06,11.47-.2,22.98.08,34.4-.65,10.25-.66,18.78-4.51,23.06-13.08ZM58.78,51.27c4.68.08,9.47-.84,13.63,1.66,1.29.78,2.76,2.1,2.94,3.31.43,2.81.64,5.79.01,8.54-.79,3.44-3.28,4.69-8.06,4.86-2.79.1-5.6-.04-8.76-.08.08-6.14.15-12.09.23-18.3ZM58.55,107.14c.1-7.78.19-15.1.29-22.88,3.69.24,7.2.4,10.68.71,3.9.35,6.13,2.43,6.39,5.58.3,3.5.26,7.05-.11,10.55-.3,2.9-2.89,4.71-6.01,5.25-3.56.62-7.28.55-11.25.8Z"/>
      <path class="cls-1" d="M184.58,60.7c-.02,1.71,1.52,3.12,3.45,3.15,4.05.05,7.9.09,11.75.14,6.79.08,6.83.08,6.76-5.91-.1-7.8-3.94-13.9-11.61-17.96-7.99-4.24-16.77-5.48-25.95-4.2-15.57,2.17-25.63,11.48-24.19,28.87.86,10.45-.03,20.49.2,29.96.26,10.7,1.22,18.47,10.49,23.5,11.51,6.25,23.67,6.64,35.91,2.13,8.04-2.96,13.84-8.11,14.67-16.05.61-5.78.29-11.63.37-17.44.05-3.16.08-6.31.12-9.41.03-2.15-1.92-3.91-4.34-3.94l-25.59-.3c-2.89-.03-5.26,2.01-5.29,4.57l-.08,6.14c-.03,2.07,1.85,3.77,4.19,3.8l6.02.07c1.83.02,3.3,1.35,3.28,2.98-.04,2.9-.09,5.71-.1,8.51-.03,5.98-4.63,9.17-11.43,7.9-6.4-1.19-6.59-3.54-6.74-10.82-.23-10.88-.45-21.08.08-31.97.47-9.68.24-12.83,8.69-12.95,4.99-.07,9.79,1.27,9.42,7.47-.04.58-.05,1.16-.06,1.76Z"/>
      <path class="cls-1" d="M111.67,63.76c6.49.2,12.99.23,19.51.3.16-.8.27-1.09.27-1.38-.02-8.67-.09-17.34-.07-26,0-2.28-1.69-2.98-3.8-3.04-5.2-.14-10.4-.15-15.6-.07-.65,0-1.82.88-1.83,1.36-.19,9.05-.28,18.1-.25,27.15,0,.58,1.14,1.65,1.78,1.67Z"/>
    </g>
  </g>
</svg>